<svg width="40" height="40" viewBox="0 0 40 40" fill="none" xmlns="http://www.w3.org/2000/svg">
<path d="M37.1609 29.907V10.093L20.0001 0.186005L2.83929 10.093V29.907L20.0001 39.814L37.1609 29.907Z" fill="url(#paint0_radial_10_303)"/>
<path d="M20.0001 0.647805L36.7609 10.3238V29.6758L20.0001 39.3518L3.23929 29.676V10.324L20.0001 0.647805ZM20.0001 0.186005L2.83929 10.093V29.907L20.0001 39.814L37.1609 29.907V10.093L20.0001 0.186005Z" fill="white"/>
<g opacity="0.1">
<path d="M20.4607 9.90098C22.6889 9.99998 24.8539 10.8548 26.5571 12.3084C26.6403 12.3796 26.7439 12.4116 26.8453 12.4062C26.9535 12.4004 27.0593 12.352 27.1353 12.2628C27.2825 12.0904 27.2621 11.8316 27.0897 11.6846C25.2483 10.113 22.9071 9.18838 20.4971 9.08118C20.2683 9.06938 20.0791 9.24658 20.0689 9.47298C20.0589 9.69938 20.2343 9.89098 20.4607 9.90118V9.90098Z" fill="white"/>
<path d="M27.1597 10.0902C27.8087 10.5038 28.4195 10.9808 28.9753 11.5084C29.1397 11.6644 29.3993 11.6576 29.5553 11.493C29.7115 11.3288 29.7047 11.0688 29.5401 10.913C28.9461 10.3496 28.2935 9.8398 27.6003 9.3984C27.4093 9.2766 27.1557 9.3328 27.0339 9.5238C26.9585 9.6424 26.9515 9.7852 27.0027 9.9056C27.0341 9.979 27.0871 10.0442 27.1595 10.0902H27.1597Z" fill="white"/>
<path d="M28.5169 20.6832C28.5289 20.6836 28.5409 20.6836 28.5527 20.6828C28.7629 20.6716 28.9335 20.5008 28.9403 20.2864C28.9487 20.0326 28.9457 19.7734 28.9319 19.5152C28.8673 18.309 28.5683 17.1516 28.0433 16.075C27.9441 15.872 27.6995 15.7872 27.4945 15.8862C27.2909 15.9856 27.2065 16.2312 27.3057 16.435C27.7825 17.4124 28.0539 18.4634 28.1125 19.5592C28.1251 19.794 28.1279 20.0298 28.1203 20.2598C28.1129 20.4866 28.2905 20.676 28.5169 20.6832Z" fill="white"/>
<path d="M21.5453 8.04998C23.0189 8.23918 24.4289 8.69478 25.7365 9.40518C25.8057 9.44278 25.8805 9.45818 25.9539 9.45418C26.0915 9.44678 26.2223 9.37018 26.2929 9.24018C26.4011 9.04098 26.3273 8.79218 26.1281 8.68378C24.7313 7.92498 23.2247 7.43818 21.6501 7.23598C21.4241 7.20718 21.2197 7.36578 21.1909 7.59058C21.1621 7.81538 21.3209 8.02098 21.5455 8.04978L21.5453 8.04998Z" fill="white"/>
<path d="M14.4085 11.513C14.4763 11.5094 14.5441 11.4888 14.6055 11.45C15.7753 10.71 17.0623 10.2266 18.4311 10.0128C18.6549 9.97779 18.8083 9.76819 18.7733 9.54419C18.7385 9.31999 18.5249 9.16959 18.3047 9.20199C16.8241 9.43299 15.4319 9.95599 14.1667 10.7564C13.9751 10.8776 13.9181 11.131 14.0393 11.3226C14.1215 11.4524 14.2649 11.5204 14.4083 11.5128L14.4085 11.513Z" fill="white"/>
<path d="M18.0657 11.2592C17.0965 11.473 16.1757 11.8446 15.3291 12.3638C15.1359 12.4822 15.0755 12.7348 15.1939 12.928C15.2755 13.0608 15.4205 13.131 15.5661 13.1232C15.6319 13.1196 15.6981 13.1 15.7583 13.0632C16.5269 12.592 17.3627 12.2546 18.2427 12.0608C18.4639 12.012 18.6037 11.793 18.5551 11.5716C18.5063 11.3504 18.2887 11.213 18.0661 11.2592H18.0657Z" fill="white"/>
<path d="M10.1865 17.6128C10.1851 17.6404 10.1809 17.6682 10.1735 17.6962C10.1511 17.7806 10.1299 17.865 10.1107 17.9502C10.1337 17.8372 10.1591 17.7248 10.1865 17.6128Z" fill="white"/>
<path d="M12.2119 17.6656C12.2101 17.6804 12.2063 17.6958 12.2019 17.7106C12.1789 17.7894 12.1569 17.8686 12.1365 17.9478C12.1365 17.9478 12.1361 17.9482 12.1361 17.9486C12.1353 17.9494 12.1343 17.95 12.1331 17.9508C12.1331 17.95 12.1335 17.9496 12.1335 17.949C12.1581 17.8538 12.1841 17.7594 12.2119 17.6656Z" fill="white"/>
<path d="M20.9795 32.8134C14.3643 33.3166 8.36809 28.6236 7.30909 22.0742C6.60869 17.74 8.12149 13.4432 11.3029 10.5186C11.4695 10.3658 11.7291 10.3766 11.8827 10.5436C12.0359 10.7102 12.0251 10.9698 11.8581 11.123C10.0933 12.745 8.87789 14.8186 8.31589 17.0824C8.19509 17.5998 8.16829 17.7648 8.04689 18.552C7.96509 19.237 7.94089 19.9334 7.97849 20.6348C8.10269 22.9516 8.87889 25.0808 10.1175 26.8568C10.3065 27.1276 10.6885 27.1766 10.9395 26.962C11.1541 26.7782 11.2005 26.4602 11.0389 26.2282C9.91229 24.6156 9.20669 22.681 9.09409 20.5764C9.08329 20.3764 9.07889 20.177 9.07929 19.9776C9.07929 19.9764 9.10529 18.9782 9.17369 18.5018C9.17229 18.5004 9.17109 18.4988 9.16989 18.4974C9.20069 18.202 9.33469 17.6322 9.33869 17.6322C9.87529 15.2194 11.2225 13.0218 13.1979 11.447C13.3753 11.3056 13.6335 11.3346 13.7743 11.5118C13.9157 11.6892 13.8863 11.9474 13.7093 12.0882C11.9359 13.5022 10.7105 15.4586 10.1863 17.6128C10.1587 17.7248 10.1335 17.837 10.1105 17.9502C10.1101 17.951 10.1097 17.9516 10.1101 17.9528C10.0677 18.1358 10.0319 18.32 10.0029 18.5048C9.90589 19.1182 9.92509 20.4616 9.91209 20.5066C9.91249 20.5152 9.91289 20.524 9.91329 20.5326C10.1893 25.6834 14.2983 29.7364 19.3221 30.0704C19.6679 30.0934 19.9573 29.807 19.9387 29.4604C19.9231 29.1702 19.6939 28.936 19.4039 28.9166C14.9575 28.6228 11.3189 25.04 11.0693 20.483C11.0671 20.4604 11.0649 20.429 11.0641 20.4098C11.0333 19.7634 11.0727 19.1196 11.1817 18.4858C11.1805 18.4862 11.1799 18.4866 11.1795 18.487C11.5287 16.403 12.6067 14.5106 14.2811 13.116C14.4551 12.971 14.7137 12.994 14.8587 13.1688C15.0037 13.3424 14.9803 13.6014 14.8063 13.7464C13.5469 14.7952 12.6607 16.1542 12.2125 17.6646C12.2125 17.665 12.2121 17.6654 12.2121 17.6658C12.1843 17.7596 12.1581 17.854 12.1337 17.9492C12.1337 17.95 12.1333 17.9504 12.1333 17.951C12.1345 17.9502 12.1355 17.9496 12.1363 17.9488C11.9373 18.7106 11.8511 19.4942 11.8805 20.2822C11.8823 20.2982 11.8843 20.315 11.8853 20.3324C11.8861 20.3548 11.8857 20.377 11.8867 20.3994C12.0923 24.5032 15.2415 27.7714 19.3379 28.092C23.0483 28.3824 26.3941 26.1788 27.6361 22.7738C27.7063 22.5812 27.9001 22.4484 28.1021 22.486C28.3587 22.534 28.5009 22.795 28.4163 23.0298C27.2831 26.166 24.5289 28.3764 21.2733 28.8416C20.9777 28.8836 20.7633 29.1444 20.7793 29.4426V29.444C20.7975 29.784 21.1047 30.0358 21.4417 29.9874C26.5569 29.2532 30.3685 24.709 30.0869 19.452C30.0237 18.2748 29.7611 17.1318 29.3055 16.0558C29.2087 15.8266 29.3361 15.559 29.5881 15.4964C29.7855 15.4476 29.9897 15.566 30.0687 15.7534C30.5861 16.9822 30.8717 18.2904 30.9163 19.6374C31.1041 25.3238 26.7905 30.2724 21.1307 30.8556C17.6735 31.2116 14.4587 29.9202 12.2195 27.6466C12.0157 27.4398 11.6861 27.4286 11.4655 27.6172L11.4647 27.618C11.2185 27.8288 11.2037 28.205 11.4313 28.4356C13.7681 30.8048 17.0669 32.204 20.6433 32.0124C27.2723 31.6576 32.3759 25.976 32.0211 19.3474C31.9163 17.388 31.3305 15.4692 30.3269 13.7992C30.1985 13.5858 30.2871 13.3024 30.5285 13.206C30.7179 13.1302 30.9361 13.2194 31.0411 13.3946C32.1067 15.175 32.7289 17.2176 32.8405 19.3034C33.2143 26.2864 27.9173 32.2854 20.9793 32.813L20.9795 32.8134Z" fill="white"/>
<path d="M11.1791 18.4873C11.1791 18.4873 11.1794 18.487 11.1794 18.4868V18.4873H11.1791Z" fill="white"/>
<path d="M12.1372 17.948C12.1372 17.948 12.1367 17.9485 12.1367 17.949C12.1358 17.9499 12.1346 17.9506 12.1331 17.9516C12.1331 17.9506 12.1336 17.9502 12.1336 17.9494C12.1353 17.9485 12.1367 17.948 12.1372 17.948Z" fill="white"/>
<path d="M10.1101 17.9528C10.0721 18.134 10.0395 18.3162 10.0119 18.4996C10.0133 18.5004 10.0105 18.5022 10.0029 18.5048C10.0319 18.32 10.0677 18.1358 10.1101 17.9528Z" fill="white"/>
<path d="M15.5807 8.7676C15.6223 8.7654 15.6643 8.757 15.7051 8.7412C16.8703 8.2966 18.0987 8.0372 19.3563 7.9698C19.5825 7.9578 19.7561 7.7644 19.7441 7.5382C19.7319 7.312 19.5387 7.1384 19.3125 7.1504C17.9697 7.2222 16.6577 7.4996 15.4127 7.9748C15.2011 8.0554 15.0949 8.2924 15.1755 8.5042C15.2407 8.6748 15.4075 8.777 15.5807 8.7676Z" fill="white"/>
<path d="M19.1341 11.4936C19.1461 11.7198 19.3395 11.8934 19.5657 11.8814C19.9681 11.8598 20.3747 11.868 20.7739 11.9052C20.7943 11.9074 20.8147 11.9076 20.8347 11.9064C21.0345 11.8958 21.2013 11.7402 21.2207 11.535C21.2421 11.3094 21.0761 11.1094 20.8507 11.0882C20.4117 11.047 19.9645 11.038 19.5219 11.0618C19.2957 11.074 19.1221 11.2672 19.1341 11.4934V11.4936Z" fill="white"/>
</g>
<path d="M9.20248 19.5004C8.87328 19.6318 8.56448 19.7034 8.28408 19.6912C7.94308 19.6726 7.67628 19.6078 7.46308 19.5182C6.97488 19.4014 6.67008 18.915 6.46048 18.2256C6.25588 17.7598 6.01368 17.3736 5.55848 17.2884C5.33788 17.2466 5.12228 17.292 4.93648 17.407C4.76448 17.5274 4.50488 17.7036 4.38988 18.438C4.34608 18.7172 4.40548 19.178 4.53588 19.5962C4.72988 20.2104 5.13948 20.9106 5.80688 21.5142L5.83268 21.5366C5.91148 21.6016 5.99228 21.6618 6.07368 21.7202C6.45748 22.007 7.08688 22.258 7.30788 22.3238C7.83928 22.4784 8.41508 22.528 9.03848 22.4728C9.70808 22.3982 10.0227 22.3166 10.2537 22.2486C10.6493 22.1416 11.0611 22.0008 11.4905 21.8236C13.0325 21.187 14.0363 20.5358 14.6385 20.1452C14.7865 20.0494 14.9031 19.9736 14.9919 19.9232C15.0391 19.8962 15.0885 19.8682 15.1341 19.8428C15.1837 19.8862 15.2469 19.9432 15.3219 20.0108C15.5297 20.1986 15.8441 20.482 16.3591 20.912C16.6519 21.1566 16.9839 21.3854 17.3381 21.629C18.3009 22.2922 19.2965 22.978 19.4391 23.9432C19.6287 25.2276 19.6039 26.1204 19.5839 26.8386L19.5769 27.0892C19.5541 27.7964 19.5731 28.1888 20.2357 28.69C20.4563 28.8568 20.7139 28.9886 21.0407 29.1562C21.4493 29.3658 21.9583 29.6268 22.5485 30.046C23.4839 30.7102 24.0825 31.2686 24.4795 31.6388L24.5961 31.7472C25.0077 32.1284 25.4047 32.2458 25.7753 32.0956C26.0107 32.196 26.2371 32.21 26.4497 32.1384C26.6421 32.3166 26.8417 32.356 26.9805 32.356C27.1575 32.356 27.2947 32.2934 27.3459 32.2662C27.5877 32.1374 27.8313 31.825 27.7235 31.3692L27.7127 31.3216C27.6171 30.7484 27.2627 30.4462 27.0699 30.3006C26.9773 30.0584 26.8073 29.8094 26.4671 29.4142C26.0363 28.9136 25.3677 28.662 24.8701 28.4746C24.7853 28.4428 24.7053 28.4128 24.6341 28.3836C24.2653 28.2326 23.4511 27.7092 23.0149 27.2326C22.6427 26.8258 22.4403 26.485 22.3239 25.6988C22.3995 25.7174 22.4701 25.7314 22.5307 25.7436C23.3561 25.9086 23.7319 25.5618 23.9929 25.2006C24.0361 25.1408 24.1069 25.0312 24.1969 24.8902C24.3799 24.603 24.6565 24.1688 24.9295 23.831C25.3013 23.371 25.3785 23.2752 25.8801 23.1514C26.6223 22.9684 27.0705 22.8578 27.7263 22.3178C27.9689 22.118 28.3445 21.7948 28.7131 21.4776C29.0849 21.1574 29.5065 20.7948 29.6279 20.702C29.9903 20.4258 30.9869 20.6072 31.4137 20.6846C31.5671 20.7126 31.6881 20.7346 31.7949 20.7452C32.4653 20.81 32.8849 20.3878 33.0445 19.995C33.7245 19.0966 33.4603 18.6396 33.3727 18.4886C33.2233 18.2302 33.0303 18.1162 31.5651 17.3022C31.0007 16.9888 29.8383 16.3432 29.6003 16.1526C28.8017 15.1226 27.8585 14.8818 27.4043 14.7658L27.3781 14.759C27.3433 14.7502 27.3131 14.7426 27.2875 14.7346C27.0627 14.6644 26.5369 14.5 26.1733 14.9354C25.7941 15.3894 26.0765 15.9296 26.2285 16.2204C26.3681 16.4872 26.7221 17.092 27.2497 17.5054C26.9127 17.4346 26.3947 17.312 26.1367 17.2322C26.0805 17.132 26.0095 16.9896 25.9543 16.8654C25.9471 16.8496 25.9393 16.8338 25.9311 16.8184C25.0873 15.2342 24.0321 13.623 21.2623 12.8538C18.2821 12.0266 16.2147 13.858 15.5351 14.4604C15.2157 14.7436 14.8185 15.1208 14.3983 15.5202C13.5229 16.3518 12.4335 17.3868 11.5555 18.0352C11.2401 18.2682 10.9283 18.4938 10.6235 18.7002C9.94708 19.141 9.64068 19.3088 9.20288 19.4996L9.20248 19.5004ZM11.9719 18.6516C13.3145 17.6596 15.0325 15.8954 16.0043 15.0336C16.9761 14.172 18.6747 12.9406 21.0193 13.5918C23.3639 14.243 24.3157 15.4854 25.2175 17.1788C25.2175 17.1788 25.4579 17.7198 25.5983 17.85C25.7385 17.9802 27.1913 18.2908 27.3517 18.311C27.5121 18.331 28.4439 17.5696 28.4939 17.4694C28.5441 17.3692 28.5641 17.269 28.0931 17.1288C27.6223 16.9886 27.1461 16.3974 26.8681 15.8664C26.5901 15.3354 26.7003 15.3654 27.0209 15.4656C27.3415 15.5658 28.2433 15.676 28.9847 16.658C29.2451 16.9986 32.5617 18.682 32.6719 18.8722C32.7821 19.0626 32.3207 19.6298 32.3207 19.6298C32.3207 19.6298 32.2411 20.0244 31.8303 19.9842C31.4195 19.9442 29.8941 19.507 29.1251 20.0944C28.8651 20.293 27.7123 21.3068 27.2013 21.7276C26.6903 22.1484 26.3897 22.2286 25.6583 22.409C24.9269 22.5894 24.7165 22.8298 24.2957 23.3508C23.8749 23.8718 23.4641 24.5732 23.3339 24.7536C23.2037 24.934 23.0935 25.0842 22.6425 24.994C22.1917 24.9038 22.0613 24.8536 22.0915 24.5432C22.1215 24.2326 22.1315 23.8518 22.2417 23.8518C22.3519 23.8518 22.3919 24.2526 22.4221 24.2926C22.4521 24.3326 22.6825 24.3528 22.6825 24.3528C22.6825 24.3528 22.9531 23.9922 22.9831 23.922C23.0131 23.8518 23.4101 22.5282 23.5141 21.9382C23.6795 21 23.1377 20.298 22.3251 20.7044C21.9619 20.886 21.1921 21.7326 21.2799 22.6196C21.3235 23.06 21.3501 24.0122 21.4703 25.3148C21.5905 26.6174 21.8711 27.1584 22.4121 27.7496C22.9531 28.3408 23.8649 28.9118 24.3057 29.0922C24.7465 29.2726 25.4779 29.483 25.8487 29.9138C26.2195 30.3446 26.3195 30.525 26.3497 30.6954C26.3797 30.8658 26.8407 30.9458 26.9207 31.4568C26.9709 31.7072 26.9909 31.577 26.6501 31.3266C26.3095 31.0762 26.2693 31.0662 26.2593 31.2364C26.2493 31.4068 26.1691 31.517 25.8585 31.2866C25.5479 31.0562 25.5279 31.0862 25.5279 31.2064C25.5279 31.3266 25.4879 31.5672 25.0771 31.1864C24.6663 30.8056 24.0251 30.1844 22.9531 29.423C21.8811 28.6616 21.0695 28.391 20.6587 28.0804C20.2479 27.7698 20.2879 27.6796 20.3081 26.9482C20.3281 26.2168 20.3653 25.2386 20.1579 23.8322C19.9053 22.1204 17.9035 21.2372 16.8115 20.3254C15.7193 19.4136 15.5591 19.1832 15.3287 19.073C15.0983 18.9628 15.0081 19.0128 14.5673 19.2634C14.1265 19.5138 13.0543 20.3354 11.1607 21.117C9.26708 21.8986 7.58368 22.0188 6.28128 20.9466C5.43968 20.1852 5.10908 19.2734 5.12908 18.7724C5.14908 18.2714 5.21928 18.011 5.37948 18.041C5.53988 18.071 5.71008 18.492 5.87048 18.8926C6.03088 19.2934 6.48428 20.3618 8.20508 20.4556C9.37708 20.5194 10.6297 19.644 11.9725 18.6522L11.9719 18.6516ZM22.0791 22.544C22.0287 22.0334 22.5541 21.464 22.7055 21.3884C22.7323 21.375 22.7553 21.3658 22.7731 21.36C22.8017 21.4238 22.8397 21.5716 22.7987 21.8052C22.7471 22.0966 22.6031 22.637 22.4683 23.1068C22.4081 23.0934 22.3453 23.0866 22.2797 23.0866C22.2239 23.0866 22.1703 23.091 22.1189 23.0998C22.1055 22.8734 22.0935 22.6882 22.0791 22.544Z" fill="white"/>
<path d="M12.0034 18.6532C13.3454 17.6618 15.0624 15.8984 16.0338 15.037C17.0052 14.1758 18.703 12.945 21.0462 13.5958C23.3896 14.2468 24.341 15.4886 25.2422 17.181C25.2422 17.181 25.4826 17.7218 25.6228 17.852C25.763 17.9822 27.215 18.2926 27.3752 18.3126C27.5354 18.3326 28.4668 17.5716 28.5168 17.4714C28.5668 17.3712 28.5868 17.2712 28.1162 17.131C27.6456 16.9908 27.1698 16.4 26.892 15.8692C26.6142 15.3384 26.7244 15.3684 27.0448 15.4686C27.3652 15.5688 28.2666 15.679 29.0076 16.6604C29.268 17.001 32.5828 18.6834 32.6928 18.8736C32.803 19.0638 32.3418 19.6308 32.3418 19.6308C32.3418 19.6308 32.2622 20.0252 31.8516 19.9852C31.441 19.9452 29.9164 19.5082 29.1478 20.0954C28.888 20.2938 27.7358 21.3072 27.225 21.7278C26.7142 22.1484 26.4138 22.2286 25.6828 22.4088C24.9518 22.589 24.7414 22.8294 24.3208 23.3502C23.9002 23.871 23.4896 24.572 23.3594 24.7522C23.2292 24.9324 23.119 25.0826 22.6684 24.9926C22.2178 24.9024 22.0876 24.8524 22.1176 24.542C22.1476 24.2316 22.1576 23.851 22.2678 23.851C22.378 23.851 22.418 24.2516 22.448 24.2916C22.478 24.3316 22.7084 24.3516 22.7084 24.3516C22.7084 24.3516 22.9788 23.991 23.0088 23.921C23.0388 23.8508 23.4356 22.528 23.5396 21.9382C23.705 21.0004 23.1634 20.2988 22.3512 20.705C21.9882 20.8864 21.2188 21.7326 21.3064 22.6192C21.35 23.0594 21.3764 24.0112 21.4966 25.313C21.6168 26.615 21.8972 27.1556 22.438 27.7466C22.9788 28.3374 23.89 28.9082 24.3308 29.0886C24.7714 29.2688 25.5024 29.4792 25.873 29.9098C26.2436 30.3404 26.3436 30.5206 26.3738 30.691C26.4038 30.8612 26.8646 30.9414 26.9446 31.452C26.9946 31.7024 27.0146 31.5722 26.6742 31.3218C26.3338 31.0714 26.2936 31.0614 26.2836 31.2316C26.2736 31.4018 26.1934 31.512 25.883 31.2816C25.5726 31.0512 25.5526 31.0814 25.5526 31.2014C25.5526 31.3214 25.5126 31.562 25.102 31.1814C24.6914 30.8008 24.0506 30.18 22.979 29.4188C21.9074 28.6578 21.0964 28.3874 20.6858 28.0768C20.2752 27.7664 20.3152 27.6762 20.3354 26.9452C20.3554 26.2142 20.3926 25.2364 20.1852 23.8308C19.9328 22.1198 17.932 21.237 16.8404 20.3258C15.7488 19.4146 15.5886 19.1842 15.3582 19.074C15.1278 18.9638 15.0378 19.014 14.5972 19.2642C14.1566 19.5146 13.085 20.3358 11.1924 21.1168C9.29956 21.898 7.61716 22.018 6.31536 20.9466C5.47416 20.1856 5.14376 19.2742 5.16376 18.7734C5.18376 18.2726 5.25396 18.0124 5.41416 18.0424C5.57436 18.0724 5.74456 18.4932 5.90496 18.8936C6.06516 19.2942 6.51836 20.3622 8.23836 20.4558C9.40976 20.5196 10.6618 19.6446 12.0038 18.6532H12.0034Z" fill="url(#paint1_radial_10_303)"/>
<defs>
<radialGradient id="paint0_radial_10_303" cx="0" cy="0" r="1" gradientUnits="userSpaceOnUse" gradientTransform="translate(20.0001 20) scale(18.535)">
<stop stop-color="#4C315A"/>
<stop offset="1" stop-color="#3A2B42"/>
</radialGradient>
<radialGradient id="paint1_radial_10_303" cx="0" cy="0" r="1" gradientUnits="userSpaceOnUse" gradientTransform="translate(18.9362 22.4998) scale(11.668)">
<stop stop-color="#4C315A"/>
<stop offset="1" stop-color="#3A2B42"/>
</radialGradient>
</defs>
</svg>
